<svg width="75" height="75" viewBox="0 0 75 75" fill="none" xmlns="http://www.w3.org/2000/svg">
<path d="M29.875 45C18.2762 33.3994 18.8312 24.6262 24.1375 20.6475L25.3131 19.7719C25.6131 19.5512 25.9543 19.393 26.3166 19.3067C26.6788 19.2204 27.0547 19.2077 27.422 19.2694C27.7892 19.3312 28.1403 19.466 28.4544 19.666C28.7685 19.866 29.0393 20.1271 29.2506 20.4337L32.2112 24.6937C32.6074 25.2639 32.7787 25.9604 32.6922 26.6492C32.6056 27.3381 32.2674 27.9706 31.7425 28.425L28.8925 30.8887C28.18 31.5056 27.8312 32.4412 28.1519 33.3281C28.7444 34.9781 30.1825 37.89 33.5837 41.2894C36.985 44.6906 39.895 46.1287 41.545 46.7231C42.4337 47.0419 43.3694 46.695 43.9862 45.9806L46.45 43.1344C46.9044 42.6095 47.5369 42.2712 48.2257 42.1847C48.9146 42.0981 49.6111 42.2694 50.1812 42.6656L54.4487 45.6281C54.7551 45.8388 55.016 46.1088 55.2159 46.4222C55.4159 46.7356 55.5508 47.086 55.6127 47.4526C55.6746 47.8192 55.6622 48.1944 55.5763 48.5561C55.4904 48.9178 55.3326 49.2586 55.1125 49.5581L54.2312 50.745C50.2544 56.0475 41.4775 56.6006 29.875 45Z" fill="#FFCF2F"/>
</svg>
