<svg width="53" height="53" viewBox="0 0 53 53" fill="none" xmlns="http://www.w3.org/2000/svg">
<circle cx="26.5" cy="26.5" r="26.5" fill="white"/>
<path fill-rule="evenodd" clip-rule="evenodd" d="M27.131 8.51785C22.4184 8.51785 21.8285 8.53751 19.9777 8.62196C18.1303 8.70641 16.8683 9.00022 15.7648 9.42936C14.608 9.86431 13.5589 10.5468 12.6913 11.4305C11.809 12.2971 11.1261 13.3455 10.6901 14.5029C10.2633 15.6064 9.96834 16.8696 9.88389 18.7169C9.80061 20.5665 9.77979 21.1553 9.77979 25.869C9.77979 30.5828 9.79944 31.1716 9.88389 33.0224C9.96834 34.8696 10.2621 36.1318 10.6913 37.2353C11.1262 38.3919 11.8087 39.4411 12.6925 40.3087C13.559 41.191 14.6075 41.874 15.7648 42.3098C16.8683 42.7379 18.1303 43.0316 19.9777 43.1161C21.8285 43.2006 22.4184 43.2202 27.131 43.2202C31.8436 43.2202 32.4335 43.2006 34.2844 43.1161C36.1316 43.0316 37.3937 42.7379 38.4972 42.3088C39.6539 41.8738 40.7031 41.1914 41.5706 40.3075C42.4529 39.441 43.1359 38.3926 43.5718 37.2353C43.9998 36.1318 44.2936 34.8696 44.3781 33.0224C44.4626 31.1716 44.4822 30.5816 44.4822 25.869C44.4822 21.1565 44.4626 20.5665 44.3781 18.7157C44.2936 16.8684 43.9998 15.6064 43.5707 14.5029C43.135 13.345 42.4521 12.2962 41.5694 11.4294C40.7029 10.547 39.6545 9.86415 38.4972 9.42822C37.3937 9.00138 36.1305 8.70641 34.2831 8.62196C32.4335 8.53867 31.8448 8.51785 27.131 8.51785ZM27.131 11.6445C31.7637 11.6445 32.3133 11.6619 34.1431 11.7452C35.8343 11.8227 36.7527 12.1038 37.3647 12.3432C38.1745 12.6567 38.7528 13.0338 39.3601 13.6399C39.9674 14.2472 40.3434 14.8256 40.6567 15.6353C40.8952 16.2472 41.1773 17.1657 41.2548 18.8569C41.3381 20.6868 41.3555 21.2363 41.3555 25.869C41.3555 30.5018 41.3381 31.0513 41.2548 32.8812C41.1773 34.5724 40.8962 35.4908 40.6567 36.1028C40.3791 36.8565 39.936 37.5382 39.3601 38.0982C38.8003 38.6742 38.1184 39.1174 37.3647 39.3948C36.7527 39.6332 35.8343 39.9154 34.1431 39.9929C32.3133 40.0762 31.765 40.0935 27.131 40.0935C22.497 40.0935 21.9487 40.0762 20.1188 39.9929C18.4276 39.9154 17.5092 39.6343 16.8972 39.3948C16.1436 39.1172 15.4617 38.674 14.9019 38.0982C14.326 37.5382 13.8829 36.8563 13.6052 36.1028C13.3668 35.4908 13.0846 34.5724 13.0071 32.8812C12.9238 31.0513 12.9065 30.5018 12.9065 25.869C12.9065 21.2363 12.9238 20.6868 13.0071 18.8569C13.0846 17.1657 13.3657 16.2472 13.6052 15.6353C13.9186 14.8256 14.2957 14.2472 14.9019 13.6399C15.4617 13.0639 16.1435 12.6208 16.8972 12.3432C17.5092 12.1049 18.4276 11.8227 20.1188 11.7452C21.9487 11.6619 22.4982 11.6445 27.131 11.6445Z" fill="#131313"/>
<path fill-rule="evenodd" clip-rule="evenodd" d="M27.1309 31.6586C26.3705 31.6586 25.6179 31.5089 24.9153 31.2179C24.2129 30.9269 23.5747 30.5004 23.0371 29.9629C22.4995 29.4252 22.073 28.787 21.7821 28.0846C21.4911 27.3822 21.3414 26.6294 21.3414 25.869C21.3414 25.1087 21.4911 24.3558 21.7821 23.6535C22.073 22.9511 22.4995 22.3128 23.0371 21.7752C23.5747 21.2376 24.2129 20.8112 24.9153 20.5202C25.6179 20.2293 26.3705 20.0795 27.1309 20.0795C28.6665 20.0795 30.1389 20.6895 31.2247 21.7752C32.3104 22.861 32.9205 24.3336 32.9205 25.869C32.9205 27.4044 32.3104 28.877 31.2247 29.9629C30.1389 31.0485 28.6665 31.6586 27.1309 31.6586ZM27.1309 16.9505C24.7656 16.9505 22.4971 17.8901 20.8246 19.5627C19.152 21.2352 18.2124 23.5037 18.2124 25.869C18.2124 28.2344 19.152 30.5028 20.8246 32.1753C22.4971 33.848 24.7656 34.7875 27.1309 34.7875C29.4962 34.7875 31.7647 33.848 33.4372 32.1753C35.1098 30.5028 36.0494 28.2344 36.0494 25.869C36.0494 23.5037 35.1098 21.2352 33.4372 19.5627C31.7647 17.8901 29.4962 16.9505 27.1309 16.9505ZM38.6439 16.7886C38.6439 17.3477 38.4218 17.8839 38.0266 18.2793C37.6311 18.6746 37.095 18.8968 36.5359 18.8968C35.9767 18.8968 35.4405 18.6746 35.0451 18.2793C34.6498 17.8839 34.4276 17.3477 34.4276 16.7886C34.4276 16.2295 34.6498 15.6932 35.0451 15.2979C35.4405 14.9025 35.9767 14.6804 36.5359 14.6804C37.095 14.6804 37.6311 14.9025 38.0266 15.2979C38.4218 15.6932 38.6439 16.2295 38.6439 16.7886Z" fill="#131313"/>
</svg>
