<svg width="45" height="45" viewBox="0 0 45 45" fill="none" xmlns="http://www.w3.org/2000/svg">
<g clip-path="url(#clip0_97_551)">
<path d="M20.7656 44.1C7.995 25.5788 5.625 23.6794 5.625 16.875C5.625 7.55437 13.1794 0 22.5 0C31.8206 0 39.375 7.55437 39.375 16.875C39.375 23.6794 37.005 25.575 24.2344 44.0925C23.8481 44.6438 23.2162 45 22.5 45C21.7838 45 21.1519 44.6437 20.7712 44.1L20.7675 44.0925L20.7656 44.1ZM22.5 23.9062C26.3813 23.9062 29.5294 20.7581 29.5294 16.875C29.5294 12.9919 26.3812 9.84375 22.4981 9.84375C18.615 9.84375 15.4669 12.9919 15.4669 16.875C15.4669 20.7581 18.615 23.9062 22.4981 23.9062H22.5Z" fill="white"/>
</g>
<defs>
<clipPath id="clip0_97_551">
<rect width="45" height="45" fill="white"/>
</clipPath>
</defs>
</svg>
