<svg width="53" height="53" viewBox="0 0 53 53" fill="none" xmlns="http://www.w3.org/2000/svg">
<circle cx="26.5" cy="26.5" r="26.5" fill="white"/>
<g clip-path="url(#clip0_98_977)">
<path fill-rule="evenodd" clip-rule="evenodd" d="M14.8233 25.8907C14.2989 26.7447 14.078 29.434 14.2586 31.2191C14.3226 31.8086 14.4279 32.2997 14.5797 32.593C14.7892 32.998 15.1423 33.2399 15.5448 33.2532C15.8029 33.2676 15.9629 33.2225 20.8104 31.6384C20.8104 31.6384 22.9648 30.9412 22.9741 30.9361C23.5109 30.7987 23.8721 30.2963 23.9083 29.6545C23.9423 28.9983 23.6079 28.417 23.0577 28.2078C23.0577 28.2078 21.5403 27.5783 21.5361 27.5783C16.3273 25.3955 16.094 25.3093 15.8308 25.3062C15.4292 25.2909 15.07 25.4959 14.8233 25.8907ZM26.4763 42.1555C26.561 41.9084 26.5703 41.7372 26.5847 36.5626C26.5847 36.5626 26.5971 34.2772 26.5981 34.2526C26.6322 33.6938 26.2771 33.1842 25.6908 32.9536C25.089 32.7188 24.4417 32.8644 24.0784 33.3257C24.0784 33.3257 23.0162 34.6074 23.0121 34.6074C19.3609 38.9617 19.2113 39.1627 19.1214 39.4211C19.0678 39.5749 19.0451 39.7348 19.0647 39.8958C19.0863 40.1254 19.1875 40.3551 19.3589 40.5663C20.2043 41.5896 24.2632 43.1069 25.5587 42.8824C26.0098 42.7983 26.336 42.541 26.4763 42.1555ZM34.707 40.3549C35.9302 39.8597 38.6007 36.4096 38.7886 35.0818C38.8526 34.6205 38.7112 34.2216 38.3974 33.9684C38.193 33.8115 38.034 33.75 33.1906 32.1352C33.1906 32.1352 31.0662 31.4216 31.0383 31.4082C30.5253 31.2062 29.9369 31.3918 29.5426 31.8891C29.1338 32.3966 29.0698 33.0641 29.397 33.5716L30.2528 34.9855C33.1297 39.7315 33.3485 40.0668 33.556 40.2308C33.876 40.4872 34.2827 40.5292 34.707 40.3549ZM32.2058 28.139C37.7109 26.7846 37.9235 26.7118 38.1414 26.5673C38.4737 26.3407 38.641 25.9582 38.6131 25.4927C38.6131 25.4774 38.6152 25.463 38.6131 25.4456C38.4717 24.0738 36.1016 20.4996 34.9351 19.9203C34.5222 19.7183 34.1073 19.7327 33.7666 19.9654C33.554 20.1069 33.396 20.3192 30.4489 24.4142C30.4489 24.4142 29.1162 26.2586 29.1008 26.2761C28.7488 26.7087 28.7457 27.3321 29.0874 27.8652C29.4425 28.4168 30.0432 28.6855 30.5934 28.5307C30.5934 28.5307 30.5707 28.5696 30.5645 28.5778C30.836 28.4722 31.3222 28.3523 32.2058 28.139ZM26.6769 23.5203C26.583 21.3046 25.9275 11.4332 25.8501 10.9749C25.7365 10.5617 25.4196 10.2654 24.9603 10.1475C23.5564 9.79273 18.1855 11.3235 17.1894 12.3672C16.8704 12.7055 16.7506 13.1239 16.8466 13.492C17.0025 13.8201 23.6596 24.4584 23.6596 24.4584C24.6444 26.0794 25.4464 25.8282 25.7086 25.7452C25.9698 25.6621 26.7677 25.4109 26.6769 23.5203Z" fill="#131313"/>
</g>
<defs>
<clipPath id="clip0_98_977">
<rect width="32.8095" height="32.8095" fill="white" transform="translate(10.0953 10.0952)"/>
</clipPath>
</defs>
</svg>
